<?xml version="1.0" encoding="UTF-8"?>
<!DOCTYPE svg PUBLIC "-//W3C//DTD SVG 1.1//EN" "http://www.w3.org/Graphics/SVG/1.1/DTD/svg11.dtd">
<!-- Creator: CorelDRAW 2021.5 -->
<svg xmlns="http://www.w3.org/2000/svg" xml:space="preserve" width="279.4mm" height="279.4mm" version="1.1" style="shape-rendering:geometricPrecision; text-rendering:geometricPrecision; image-rendering:optimizeQuality; fill-rule:evenodd; clip-rule:evenodd"
viewBox="0 0 27940 27940"
 xmlns:xlink="http://www.w3.org/1999/xlink"
 xmlns:xodm="http://www.corel.com/coreldraw/odm/2003">
 <defs>
  <style type="text/css">
   <![CDATA[
    .fil0 {fill:#F7941E}
    .fil1 {fill:white;fill-rule:nonzero}
   ]]>
  </style>
 </defs>
 <g id="Layer_x0020_1">
  <metadata id="CorelCorpID_0Corel-Layer"/>
  <g id="_105553222664352">
   <path class="fil0" d="M9150.42 15169.43l0 -177.89 0 -495.94 0 -404.3 708.89 -708.89 288.4 -288.39 169.82 -169.82 148.23 148.23 301.89 301.88 37.73 37.74 673.83 673.83 0 409.72 0 506.72 0 167.11 -673.83 0 0 328.84 673.83 0 318.05 0 0 -177.9 0 -150.94 0 -673.83 0 -91.66 0 -474.38 -318.05 -318.05 -474.37 -474.38 -199.46 -199.46 -250.67 -250.66 -88.95 -88.95 -156.32 -156.34 -161.73 161.73 -75.47 75.46 -458.22 458.22 -463.6 463.6 -318.05 318.06 0 490.56 0 86.25 0 673.83 0 140.17 0 188.67 318.05 0 997.29 0 318.05 0 0 -328.84 0 -673.83 339.62 0 167.1 0 -167.1 -167.12 -339.62 -339.61 -156.32 -156.34 -161.73 161.73 -501.34 501.34 501.34 0 0 673.83 -997.29 0zm279.27 -2158.5l0 -396.6 -332.86 0 0 729.46 332.86 -332.86z"/>
   <path class="fil1" d="M13642.05 15400.75c67.16,0 100.89,-33.42 100.89,-73.03 0,-79.85 -119.77,-58.18 -119.77,-84.18 0,-7.43 6.81,-13.62 28.17,-13.62 18.87,0 38.99,5.27 60.34,16.1l21.97 -52.92c-22.59,-12.69 -52.61,-18.88 -81.7,-18.88 -67.15,0 -100.88,32.8 -100.88,73.03 0,80.78 119.76,58.8 119.76,86.04 0,7.42 -7.43,11.76 -28.16,11.76 -23.83,0 -51.06,-7.74 -71.49,-19.81l-23.52 53.23c21.67,13.31 58.18,22.28 94.39,22.28z"/>
   <polygon id="_1" class="fil1" points="14086.19,15340.71 14086.19,15312.24 14177.79,15312.24 14177.79,15259.63 14086.19,15259.63 14086.19,15234.26 14190.48,15234.26 14190.48,15179.17 14014.39,15179.17 14014.39,15395.8 14194.5,15395.8 14194.5,15340.71 "/>
   <path id="_2" class="fil1" d="M14602.12 15395.8l77.98 0 -45.49 -66.85c26,-13.3 40.85,-36.82 40.85,-68.08 0,-50.13 -38.37,-81.7 -98.72,-81.7l-104.29 0 0 216.63 73.03 0 0 -54.47 19.81 0 36.83 54.47zm-0.31 -134.93c0,15.78 -9.6,25.38 -29.71,25.38l-26.62 0 0 -50.76 26.62 0c20.11,0 29.71,9.6 29.71,25.38z"/>
   <polygon id="_3" class="fil1" points="15112.49,15179.17 15059.57,15305.74 15007.89,15179.17 14929.28,15179.17 15020.88,15395.8 15092.68,15395.8 15184.28,15179.17 "/>
   <polygon id="_4" class="fil1" points="15441.19,15395.8 15514.22,15395.8 15514.22,15179.17 15441.19,15179.17 "/>
   <path id="_5" class="fil1" d="M15911.32 15400.75c42.4,0 75.82,-15.47 97.17,-43.32l-46.11 -41.16c-12.69,16.09 -27.85,25.37 -47.35,25.37 -30.33,0 -50.75,-21.04 -50.75,-54.15 0,-33.12 20.42,-54.16 50.75,-54.16 19.5,0 34.66,9.28 47.35,25.37l46.11 -41.15c-21.35,-27.86 -54.77,-43.33 -97.17,-43.33 -69.63,0 -120.7,46.73 -120.7,113.27 0,66.53 51.07,113.26 120.7,113.26z"/>
   <polygon id="_6" class="fil1" points="16351.13,15340.71 16351.13,15312.24 16442.73,15312.24 16442.73,15259.63 16351.13,15259.63 16351.13,15234.26 16455.42,15234.26 16455.42,15179.17 16279.33,15179.17 16279.33,15395.8 16459.44,15395.8 16459.44,15340.71 "/>
   <path id="_7" class="fil1" d="M16818.16 15400.75c67.16,0 100.89,-33.42 100.89,-73.03 0,-79.85 -119.77,-58.18 -119.77,-84.18 0,-7.43 6.81,-13.62 28.17,-13.62 18.87,0 38.99,5.27 60.34,16.1l21.97 -52.92c-22.59,-12.69 -52.61,-18.88 -81.7,-18.88 -67.15,0 -100.88,32.8 -100.88,73.03 0,80.78 119.76,58.8 119.76,86.04 0,7.42 -7.43,11.76 -28.16,11.76 -23.83,0 -51.06,-7.74 -71.49,-19.81l-23.52 53.23c21.67,13.31 58.18,22.28 94.39,22.28z"/>
   <g>
    <path class="fil1" d="M12709.18 12837.16c255.22,0 382.12,112.81 382.12,338.42 0,225.6 -126.9,338.41 -382.12,338.41l-173.44 0 0 310.21 -245.35 0 0 -987.04 418.79 0zm-11.28 455.45c49.35,0 84.6,-9.87 105.75,-28.2 21.15,-18.33 32.43,-47.94 32.43,-88.83 0,-39.48 -11.28,-67.69 -32.43,-86.02 -21.15,-18.33 -56.4,-26.79 -105.75,-26.79l-162.16 0 0 229.84 162.16 0z"/>
    <polygon class="fil1" points="13951.4,13602.82 13951.4,13824.2 13209.71,13824.2 13209.71,12837.16 13937.3,12837.16 13937.3,13058.54 13453.65,13058.54 13453.65,13216.47 13900.64,13216.47 13900.64,13435.03 13453.65,13435.03 13453.65,13602.82 "/>
    <path class="fil1" d="M14403.99 13490.02l-56.4 0 0 334.18 -243.94 0 0 -987.04 430.07 0c125.96,0 220.44,27.97 283.42,83.9 62.98,55.93 94.47,138.42 94.47,247.47 0,86.48 -19.97,155.34 -59.93,206.57 -39.95,51.23 -100.34,85.31 -181.19,102.23l344.66 723.46 -293.29 0 -317.87 -710.77zm253.81 -321.49c0,-39.48 -10.81,-67.45 -32.43,-83.9 -21.62,-16.45 -56.87,-24.68 -105.75,-24.68l-172.03 0 0 218.56 172.03 0c47.94,0 82.96,-8.46 105.05,-25.38 22.09,-16.92 33.13,-45.12 33.13,-84.6z"/>
    <polygon class="fil1" points="15295.11,13058.54 15295.11,13239.03 15740.69,13239.03 15740.69,13463.23 15295.11,13463.23 15295.11,13824.2 15049.76,13824.2 15049.76,12837.16 15768.89,12837.16 15768.89,13058.54 "/>
    <polygon class="fil1" points="16640.27,13602.82 16640.27,13824.2 15898.58,13824.2 15898.58,12837.16 16626.17,12837.16 16626.17,13058.54 16142.52,13058.54 16142.52,13216.47 16589.51,13216.47 16589.51,13435.03 16142.52,13435.03 16142.52,13602.82 "/>
    <path class="fil1" d="M17242.33 13843.94c-100.11,0 -190.36,-22.56 -267.91,-66.27 -77.55,-43.71 -138.18,-104.35 -181.9,-181.9 -43.71,-77.55 -64.86,-164.97 -64.86,-263.68 0,-97.29 21.15,-186.12 63.45,-263.68 42.31,-77.55 102.94,-139.59 180.49,-184.71 77.55,-43.71 167.8,-66.28 270.73,-66.28 102.93,0 194.59,23.98 272.14,70.51 77.55,47.94 136.77,117.03 176.26,205.86l-212.92 108.58c-22.56,-50.76 -53.58,-88.84 -94.47,-115.63 -40.9,-25.38 -87.43,-38.07 -139.6,-38.07 -50.76,0 -95.88,11.28 -135.36,35.25 -39.49,23.97 -70.51,57.82 -91.66,100.12 -22.56,43.71 -33.84,91.65 -33.84,146.64 0,54.99 11.28,102.94 33.84,145.24 21.15,43.71 52.17,76.14 91.66,100.11 39.48,23.97 84.6,36.66 135.36,36.66 52.17,0 98.7,-12.69 139.6,-39.48 40.89,-25.38 71.91,-63.45 94.47,-114.21l212.92 108.57c-39.49,88.83 -98.71,157.93 -176.26,204.46 -77.55,47.94 -169.21,71.91 -272.14,71.91z"/>
    <polygon class="fil1" points="17998.09,13064.18 17718.9,13064.18 17718.9,12837.16 18522.63,12837.16 18522.63,13064.18 18243.44,13064.18 18243.44,13824.2 17998.09,13824.2 "/>
    <polygon class="fil1" points="13956.78,13965.43 13956.78,14952.47 13711.44,14952.47 13711.44,14561.89 13330.72,14561.89 13330.72,14952.47 13085.37,14952.47 13085.37,13965.43 13330.72,13965.43 13330.72,14334.87 13711.44,14334.87 13711.44,13965.43 "/>
    <path class="fil1" d="M14570.73 14972.21c-100.11,0 -190.36,-22.56 -269.32,-66.27 -80.37,-43.71 -142.41,-105.76 -186.13,-183.31 -45.12,-77.55 -67.68,-164.97 -67.68,-262.27 0,-97.29 22.56,-184.71 67.68,-263.68 43.72,-77.55 105.76,-139.59 186.13,-184.71 78.96,-43.71 169.21,-66.28 269.32,-66.28 100.11,0 190.36,22.57 270.73,66.28 78.96,45.12 141.01,107.16 186.13,184.71 43.71,78.97 66.27,166.39 66.27,263.68 0,97.3 -22.56,184.72 -66.27,262.27 -45.12,77.55 -107.17,139.6 -186.13,183.31 -80.37,43.71 -170.62,66.27 -270.73,66.27zm0 -231.25c52.17,0 98.7,-11.28 139.6,-35.25 40.89,-23.97 71.91,-56.4 94.47,-100.11 21.15,-42.3 32.43,-90.25 32.43,-145.24 0,-54.99 -11.28,-102.93 -32.43,-146.64 -22.56,-43.71 -53.58,-77.56 -94.47,-101.53 -40.9,-23.97 -87.43,-35.25 -139.6,-35.25 -52.17,0 -98.7,11.28 -139.59,35.25 -40.9,23.97 -71.92,57.82 -93.07,101.53 -22.56,43.71 -33.84,91.65 -33.84,146.64 0,54.99 11.28,102.94 33.84,145.24 21.15,43.71 52.17,76.14 93.07,100.11 40.89,23.97 87.42,35.25 139.59,35.25z"/>
    <polygon class="fil1" points="16257.68,13965.43 16257.68,14952.47 16015.15,14952.47 16015.15,14316.54 15786.73,14722.63 15604.83,14722.63 15376.4,14316.54 15376.4,14952.47 15133.87,14952.47 15133.87,13965.43 15429.98,13965.43 15696.48,14442.03 15961.57,13965.43 "/>
    <polygon class="fil1" points="17183.29,14731.09 17183.29,14952.47 16441.6,14952.47 16441.6,13965.43 17169.19,13965.43 17169.19,14186.81 16685.54,14186.81 16685.54,14344.74 17132.53,14344.74 17132.53,14563.3 16685.54,14563.3 16685.54,14731.09 "/>
   </g>
  </g>
 </g>
</svg>
